# xmcd
#
# Track frame offsets:
#	150
#	12196
#	24415
#	44007
#	58628
#	75387
#	88189
#	104571
#	121111
#	134339
#	158900
#
# Disc length: 2373 seconds
#
# Revision: 2
# Processed by: cddbd v1.4PL0 Copyright (c) Steve Scherf et al.
# Submitted via: EZCDDA 4.3.2
#
DISCID=8709430b
DTITLE=La Mississippi - Palacio de pulgas
DYEAR=1900
DGENRE=
TTITLE0=Ahora vengo
TTITLE1=El fierro
TTITLE2=Ella
TTITLE3=Canción del pescador
TTITLE4=Ojos de piedra
TTITLE5=Bueno, bueno, bueno
TTITLE6=Mono
TTITLE7=No preguntes
TTITLE8=Busco una canción
TTITLE9=Abrime negra
TTITLE10=Pista 11
EXTD=
EXTT0=
EXTT1=
EXTT2=
EXTT3=
EXTT4=
EXTT5=
EXTT6=
EXTT7=
EXTT8=
EXTT9=
EXTT10=
PLAYORDER=
